<svg xmlns="http://www.w3.org/2000/svg" width="1024" height="1024" viewBox="0 0 1024 1024" version="1.1">
	<path d="M 0 512.001 L 0 1024.002 512.250 1023.751 L 1024.500 1023.500 1024.751 511.750 L 1025.002 0 512.501 0 L 0 0 0 512.001 M 0.496 512.500 C 0.496 794.100, 0.610 909.151, 0.750 768.168 C 0.890 627.186, 0.890 396.786, 0.750 256.168 C 0.610 115.551, 0.496 230.900, 0.496 512.500 M 308 168.450 C 264.560 174.228, 225.048 192.713, 193.867 221.847 C 177.157 237.460, 163.713 255.926, 151.614 279.883 C 135.670 311.453, 128.910 337.549, 127.364 373.500 C 126.252 399.369, 131.810 435.109, 141.072 461.643 C 144.011 470.061, 155.563 493.387, 163.359 506.645 C 187.087 546.997, 232.049 579.390, 282.358 592.381 L 291.500 594.741 291.779 604.621 C 291.933 610.054, 292.399 632.500, 292.815 654.500 C 293.521 691.794, 293.711 694.805, 295.624 699.011 C 301.687 712.339, 318.136 718.996, 330.500 713.127 C 335.681 710.667, 363.120 683.522, 420 624.584 L 444.500 599.198 472.500 599.098 C 514.309 598.949, 531.486 596.785, 556.695 588.490 C 589.505 577.693, 616.422 560.729, 641 535.358 C 667.807 507.686, 685.796 473.157, 695.104 431.505 C 703.329 394.698, 702.387 356.486, 692.396 321.672 C 687.925 306.094, 685.401 299.806, 675.471 279.500 C 664.584 257.239, 657.072 246.160, 643 231.609 C 609.979 197.464, 575.290 178.928, 526.500 169.359 C 518.311 167.752, 508.486 167.575, 417.500 167.390 C 341.619 167.235, 315.209 167.491, 308 168.450 M 339.669 296.046 C 327.199 298.140, 318.210 303.717, 311.541 313.500 C 306.422 321.008, 304.047 328.241, 303.330 338.500 C 301.934 358.497, 309.667 373.838, 324.586 380.668 C 328.202 382.323, 333.366 383.520, 340.011 384.242 L 350 385.328 350 392.051 C 350 400.495, 346.637 412.380, 341.801 421.029 C 335.095 433.020, 321.224 446.060, 308.750 452.099 C 306.137 453.364, 304 454.809, 304 455.312 C 304 457.404, 317.600 488.289, 318.710 488.717 C 319.375 488.973, 324.100 487.264, 329.210 484.919 C 359.900 470.831, 383.418 445.685, 393.876 415.775 C 399.118 400.780, 400.392 391.776, 400.349 370 C 400.317 353.545, 399.976 349.128, 398.166 341.715 C 391.984 316.396, 375.863 299.779, 353.918 296.103 C 346.665 294.888, 346.573 294.887, 339.669 296.046 M 465.618 297.112 C 459.242 298.609, 450.126 304.050, 445.824 308.927 C 436.881 319.063, 433.471 330.001, 434.193 346.231 C 434.592 355.200, 435.086 357.586, 437.701 363.174 C 443.754 376.109, 454.128 382.657, 471.362 384.420 L 481.255 385.433 480.745 393.466 C 480.135 403.094, 476.345 415.022, 471.206 423.490 C 465.969 432.120, 453.944 443.791, 444.091 449.806 C 439.466 452.629, 435.304 455.065, 434.841 455.220 C 434.071 455.477, 447.307 487.559, 448.872 489.227 C 449.247 489.627, 453.940 487.979, 459.300 485.565 C 489.834 471.813, 513.414 446.745, 524.261 416.500 C 529.480 401.946, 530.506 394.299, 530.429 370.500 C 530.363 350.237, 530.160 347.782, 527.854 339.409 C 521.808 317.459, 506.665 301.387, 487.972 297.079 C 482.587 295.838, 470.971 295.856, 465.618 297.112" stroke="none" fill="black" fill-rule="evenodd"/>
</svg>